<mxfile host="app.diagrams.net" modified="2024-05-29T15:54:54.093Z" agent="Mozilla/5.0 (Windows NT 10.0; Win64; x64) AppleWebKit/537.36 (KHTML, like Gecko) Chrome/125.0.0.0 Safari/537.36" version="24.4.9" etag="WHWAL9DmJKsgdVrOTA_C" type="github">
  <diagram name="Страница — 1" id="1YD3BkvcP2KudVIII_s0">
    <mxGraphModel>
      <root>
        <mxCell id="0" />
        <mxCell id="1" parent="0" />
      </root>
    </mxGraphModel>
  </diagram>
</mxfile>
